<?xml version="1.0" standalone="no"?>
<!DOCTYPE svg PUBLIC "-//W3C//DTD SVG 20010904//EN"
 "http://www.w3.org/TR/2001/REC-SVG-20010904/DTD/svg10.dtd">
<svg version="1.0" xmlns="http://www.w3.org/2000/svg"
 width="500.000000pt" height="500.000000pt" viewBox="0 0 500.000000 500.000000"
 preserveAspectRatio="xMidYMid meet">

<g transform="translate(0.000000,500.000000) scale(0.100000,-0.100000)"
fill="#000000" stroke="none">
<path d="M1570 4235 l0 -76 108 3 107 3 3 73 3 72 -111 0 -110 0 0 -75z"/>
<path d="M3042 4238 l3 -73 108 -3 107 -3 0 76 0 75 -110 0 -111 0 3 -72z"/>
<path d="M1877 4263 c-4 -3 -7 -246 -7 -540 l0 -533 110 0 110 0 0 540 0 540
-103 0 c-57 0 -107 -3 -110 -7z"/>
<path d="M4287 4263 c-4 -3 -7 -51 -7 -105 l0 -99 -28 21 c-16 12 -47 24 -70
27 -89 12 -152 -21 -195 -101 -21 -40 -22 -50 -22 -361 l0 -320 25 -49 c33
-66 63 -87 136 -92 69 -6 98 6 131 55 l23 34 0 -42 0 -41 110 0 110 0 0 540 0
540 -103 0 c-57 0 -107 -3 -110 -7z m-17 -349 c6 -14 10 -136 10 -272 0 -211
-2 -251 -16 -270 -20 -29 -54 -25 -71 8 -20 39 -14 537 7 550 29 18 60 11 70
-16z"/>
<path d="M630 4166 l0 -95 -32 -3 -33 -3 -3 -82 -3 -83 36 0 35 0 0 -317 c0
-234 4 -325 13 -343 25 -51 98 -69 211 -54 l46 7 0 76 0 77 -27 -1 -28 0 -3
278 -2 277 30 0 30 0 0 85 0 85 -30 0 -30 0 0 95 0 95 -105 0 -105 0 0 -94z"/>
<path d="M1125 4101 c-103 -27 -146 -84 -161 -209 l-7 -63 109 3 109 3 6 48
c6 53 23 71 51 56 27 -14 39 -55 36 -112 l-3 -50 -80 -27 c-157 -53 -200 -90
-226 -193 -19 -76 -7 -225 22 -283 35 -69 67 -89 144 -89 68 0 91 12 126 70
l19 30 0 -47 0 -48 110 0 110 0 0 350 c0 386 -5 432 -53 486 -49 57 -99 77
-197 80 -47 2 -98 0 -115 -5z m143 -574 c-3 -150 -11 -177 -49 -177 -34 0 -49
38 -49 131 0 47 5 101 11 118 10 29 59 71 82 71 5 0 7 -65 5 -143z"/>
<path d="M3634 4092 c-16 -11 -38 -35 -47 -53 l-17 -34 0 48 0 47 -110 0 -110
0 0 -455 0 -455 110 0 110 0 0 349 c0 203 4 360 10 375 12 33 53 35 74 4 14
-19 16 -72 16 -375 l0 -353 105 0 105 0 0 393 c0 361 -2 395 -19 433 -26 57
-72 87 -140 92 -43 2 -63 -2 -87 -16z"/>
<path d="M1570 3645 l0 -455 110 0 110 0 0 455 0 455 -110 0 -110 0 0 -455z"/>
<path d="M2166 4073 c7 -41 104 -845 104 -865 0 -16 13 -18 123 -18 l124 0 22
213 c34 315 33 314 65 52 15 -126 30 -238 32 -247 5 -16 19 -18 113 -18 l107
0 53 418 c30 229 56 434 59 455 l5 38 -104 -3 -104 -3 -22 -212 c-11 -116 -23
-220 -25 -230 -2 -10 -10 29 -18 87 -7 58 -20 161 -29 230 l-16 125 -98 3
c-95 3 -97 2 -98 -20 -1 -65 -47 -431 -52 -418 -3 8 -15 98 -27 200 -11 102
-23 197 -26 213 l-6 27 -94 0 -93 0 5 -27z"/>
<path d="M3040 3645 l0 -455 110 0 110 0 0 455 0 455 -110 0 -110 0 0 -455z"/>
<path d="M2762 3058 l3 -73 108 -3 107 -3 0 76 0 75 -110 0 -111 0 3 -72z"/>
<path d="M1217 3083 c-4 -3 -7 -246 -7 -540 l0 -533 110 0 110 0 0 540 0 540
-103 0 c-57 0 -107 -3 -110 -7z"/>
<path d="M880 2923 c-8 -3 -27 -15 -42 -25 -28 -19 -28 -19 -28 1 0 20 -5 21
-110 21 l-110 0 0 -545 0 -545 110 0 110 0 0 104 0 104 37 -19 c48 -24 126
-24 179 0 34 15 47 30 70 77 l29 59 3 277 c5 342 -8 418 -80 469 -30 22 -136
36 -168 22z m17 -193 c9 -18 13 -92 13 -265 0 -261 -5 -290 -50 -290 -46 0
-50 27 -48 301 2 199 6 255 17 268 19 23 53 16 68 -14z"/>
<path d="M2232 2910 c-34 -15 -48 -29 -65 -67 -21 -46 -22 -61 -22 -323 0
-274 0 -276 25 -324 31 -61 75 -86 148 -86 63 0 106 20 126 58 l15 27 1 -33
c0 -18 -6 -48 -14 -66 -28 -67 -85 -81 -186 -46 -30 11 -58 19 -61 20 -4 0
-23 -27 -42 -59 -39 -66 -40 -64 33 -102 37 -19 64 -24 156 -27 141 -5 211 13
265 67 66 66 69 89 69 558 l0 413 -110 0 -110 0 0 -42 0 -43 -20 32 c-38 63
-125 81 -208 43z m215 -180 c16 -32 18 -373 2 -418 -14 -42 -47 -52 -71 -22
-16 20 -18 44 -18 234 0 156 3 215 12 224 20 20 61 10 75 -18z"/>
<path d="M3354 2912 c-16 -11 -38 -35 -47 -53 l-17 -34 0 48 0 47 -110 0 -110
0 0 -455 0 -455 110 0 110 0 0 349 c0 203 4 360 10 375 12 33 53 35 74 4 14
-19 16 -72 16 -375 l0 -353 105 0 105 0 0 393 c0 361 -2 395 -19 433 -26 57
-72 87 -140 92 -43 2 -63 -2 -87 -16z"/>
<path d="M1522 2518 c3 -382 4 -405 23 -437 35 -59 67 -76 147 -76 69 0 71 1
104 39 l34 39 0 -36 0 -37 110 0 110 0 0 455 0 455 -104 0 -103 0 -7 -46 c-3
-26 -6 -188 -6 -360 0 -271 -2 -315 -16 -328 -18 -19 -45 -21 -62 -4 -9 9 -12
106 -12 375 l0 363 -110 0 -111 0 3 -402z"/>
<path d="M2760 2465 l0 -455 110 0 110 0 0 455 0 455 -110 0 -110 0 0 -455z"/>
<path d="M1817 1913 c-4 -3 -7 -246 -7 -540 l0 -533 110 0 110 0 0 540 0 540
-103 0 c-57 0 -107 -3 -110 -7z"/>
<path d="M2760 1816 l0 -95 -27 -3 c-28 -3 -28 -4 -31 -85 l-3 -83 31 0 30 0
0 -297 c0 -167 4 -314 10 -334 6 -19 22 -46 36 -60 23 -22 34 -24 112 -24 122
0 122 0 122 84 0 69 0 70 -27 73 l-28 3 -3 278 -2 277 30 0 31 0 -3 83 c-3 81
-3 82 -30 85 -27 3 -27 3 -30 95 l-3 92 -107 3 -108 3 0 -95z"/>
<path d="M3140 1816 l0 -95 -27 -3 c-28 -3 -28 -4 -31 -85 l-3 -83 31 0 30 0
0 -297 c0 -167 4 -314 10 -334 6 -19 22 -46 36 -60 23 -22 34 -24 112 -24 122
0 122 0 122 84 0 69 0 70 -27 73 l-28 3 -3 278 -2 277 30 0 31 0 -3 83 c-3 81
-3 82 -30 85 -27 3 -27 3 -30 95 l-3 92 -107 3 -108 3 0 -95z"/>
<path d="M880 1753 c-8 -3 -27 -15 -42 -25 -28 -19 -28 -19 -28 1 0 20 -5 21
-110 21 l-110 0 0 -545 0 -545 110 0 110 0 0 104 0 104 37 -19 c48 -24 126
-24 179 0 34 15 47 30 70 77 l29 59 3 277 c5 342 -8 418 -80 469 -30 22 -136
36 -168 22z m17 -193 c9 -18 13 -92 13 -265 0 -261 -5 -290 -50 -290 -46 0
-50 27 -48 301 2 199 6 255 17 268 19 23 53 16 68 -14z"/>
<path d="M1340 1741 c-91 -32 -130 -94 -130 -208 l0 -53 104 0 105 0 3 46 c4
57 32 83 64 60 16 -12 19 -27 19 -87 l0 -72 -84 -28 c-127 -43 -165 -69 -198
-136 -25 -53 -28 -68 -28 -163 0 -167 41 -249 131 -266 75 -14 126 8 165 71
l19 30 0 -47 0 -48 110 0 110 0 0 363 c0 222 -4 377 -11 400 -13 48 -61 102
-113 129 -59 31 -192 35 -266 9z m170 -559 c0 -146 -10 -182 -49 -182 -37 0
-46 28 -46 142 l0 110 37 34 c21 19 42 34 48 34 6 0 10 -51 10 -138z"/>
<path d="M2277 1746 c-68 -25 -113 -62 -138 -113 -23 -46 -24 -59 -27 -288 -4
-274 5 -350 48 -419 39 -60 92 -87 190 -93 144 -10 238 39 274 143 9 27 19 85
23 131 l6 83 -112 0 -111 0 0 -76 c0 -85 -11 -114 -43 -114 -48 0 -52 11 -55
144 l-4 125 159 3 158 3 0 150 c0 201 -22 257 -119 307 -53 28 -192 35 -249
14z m140 -176 c7 -14 13 -61 13 -107 l0 -83 -50 0 -50 0 0 90 c0 78 3 93 21
111 25 25 50 21 66 -11z"/>
<path d="M3642 1746 c-59 -19 -108 -59 -135 -109 -21 -40 -22 -55 -25 -310 -3
-218 0 -278 12 -321 33 -112 98 -165 215 -174 202 -14 286 64 306 286 l6 72
-110 0 -111 0 0 -73 c0 -82 -16 -117 -55 -117 -37 0 -45 28 -45 154 l0 116
154 0 153 0 7 99 c14 208 -20 313 -117 362 -53 28 -192 36 -255 15z m132 -161
c20 -20 28 -66 24 -140 l-3 -60 -47 -3 -48 -3 0 88 c0 116 29 162 74 118z"/>
<path d="M4344 1056 c-48 -21 -74 -61 -74 -115 1 -25 6 -56 14 -69 43 -78 171
-82 220 -8 24 37 21 117 -6 151 -22 28 -74 55 -105 55 -10 -1 -32 -7 -49 -14z"/>
</g>
</svg>
